<?xml version="1.0" encoding="UTF-8" standalone="no"?>
<!DOCTYPE svg PUBLIC "-//W3C//DTD SVG 1.1//EN" "http://www.w3.org/Graphics/SVG/1.1/DTD/svg11.dtd">
<svg width="100%" height="100%" viewBox="0 0 64 64" version="1.1" xmlns="http://www.w3.org/2000/svg" xmlns:xlink="http://www.w3.org/1999/xlink" xml:space="preserve" xmlns:serif="http://www.serif.com/" style="fill-rule:evenodd;clip-rule:evenodd;stroke-linejoin:round;stroke-miterlimit:2;">
<rect id="Artboard1" x="0" y="0" width="64" height="64" style="fill:none;"/>
<g id="Artboard11" serif:id="Artboard1">
<g id="icon-layer" serif:id="icon layer">
<path id="Bottom-Stack" serif:id="Bottom Stack" d="M58.961,41.001c0.409,0.348 0.625,0.71 0.625,1.08c0,0.052 -0.004,0.103 -0.012,0.153c0.005,0.013 0.009,0.027 0.012,0.041c0.552,2.095 0.552,10.474 0,12.569c-0,0.003 -0.001,0.006 -0.002,0.009c0.002,0.022 0.002,0.044 0.002,0.066c0,2.804 -12.354,5.081 -27.572,5.081c-15.21,0 -27.56,-2.275 -27.573,-5.077c-0.011,-0.025 -0.02,-0.051 -0.027,-0.079c-0.552,-2.095 -0.552,-10.474 -0,-12.569c0.008,-0.033 0.019,-0.063 0.033,-0.091c-0.004,-0.034 -0.006,-0.068 -0.006,-0.103c0,-0.366 0.211,-0.723 0.611,-1.067c1.966,1.889 13.29,3.341 26.948,3.341c13.688,-0 25.032,-1.458 26.961,-3.354Z"/>
<path id="Middle-Stack" serif:id="Middle Stack" d="M58.961,23.75c0.409,0.348 0.625,0.71 0.625,1.08c0,0.052 -0.004,0.103 -0.012,0.153c0.005,0.013 0.009,0.027 0.012,0.041c0.552,2.095 0.552,10.474 0,12.569c-0,0.003 -0.001,0.006 -0.002,0.009c0.002,0.022 0.002,0.044 0.002,0.066c0,2.804 -12.354,5.081 -27.572,5.081c-15.21,-0 -27.56,-2.275 -27.573,-5.077c-0.011,-0.025 -0.02,-0.051 -0.027,-0.079c-0.552,-2.095 -0.552,-10.474 -0,-12.569c0.008,-0.033 0.019,-0.063 0.033,-0.091c-0.004,-0.034 -0.006,-0.068 -0.006,-0.103c0,-0.366 0.211,-0.723 0.611,-1.067c1.966,1.889 13.29,3.341 26.948,3.341c13.688,-0 25.032,-1.458 26.961,-3.354Z"/>
<path id="Top-Stack" serif:id="Top Stack" d="M4.447,8.846c-0.004,-0.032 -0.006,-0.064 -0.006,-0.096c0,-2.622 12.355,-4.75 27.573,-4.75c15.218,0 27.572,2.128 27.572,4.75c0,0.048 -0.004,0.096 -0.012,0.143c0.005,0.012 0.009,0.025 0.012,0.038c0.552,1.958 0.552,9.791 0,11.75c-0,0.002 -0.001,0.005 -0.002,0.007c0.002,0.021 0.002,0.042 0.002,0.062c0,2.622 -12.354,4.75 -27.572,4.75c-15.21,-0 -27.56,-2.126 -27.573,-4.746c-0.011,-0.023 -0.02,-0.048 -0.027,-0.073c-0.552,-1.959 -0.552,-9.792 -0,-11.75c0.008,-0.03 0.019,-0.059 0.033,-0.085Z"/>
</g>
</g>
</svg>